<svg xmlns="http://www.w3.org/2000/svg" style="display:none" aria-hidden="true">
  <defs>
    <style>
      .ic { fill: none; stroke: currentColor; stroke-width: 1.8; stroke-linecap: round; stroke-linejoin: round; }
    </style>
  </defs>

  <symbol id="i-map" viewBox="0 0 24 24">
    <path class="ic" d="M9 4 3 6v14l6-2 6 2 6-2V4l-6 2-6-2Z"/>
    <path class="ic" d="M9 4v14M15 6v14"/>
  </symbol>

  <symbol id="i-book" viewBox="0 0 24 24">
    <path class="ic" d="M4 19.5A2.5 2.5 0 0 1 6.5 17H20V4a2 2 0 0 0-2-2H6.5A2.5 2.5 0 0 0 4 4.5v15Z"/>
    <path class="ic" d="M4 19.5A2.5 2.5 0 0 0 6.5 22H20v-5M8 7h8M8 11h6"/>
  </symbol>

  <symbol id="i-reset" viewBox="0 0 24 24">
    <path class="ic" d="M3 12a9 9 0 1 0 3-6.7L3 8"/>
    <path class="ic" d="M3 3v5h5"/>
  </symbol>

  <symbol id="i-close" viewBox="0 0 24 24">
    <path class="ic" d="M6 6l12 12M18 6 6 18"/>
  </symbol>

  <symbol id="i-umbrella" viewBox="0 0 24 24">
    <path class="ic" d="M12 3a9 9 0 0 1 9 9H3a9 9 0 0 1 9-9Z"/>
    <path class="ic" d="M12 12v5.5a2.5 2.5 0 0 1-5 0"/>
  </symbol>

  <symbol id="i-heart" viewBox="0 0 24 24">
    <path class="ic" d="M12 20s-7-4.6-9.2-8.9C1.4 8.5 3.2 5 6.6 5c2 0 3.6 1.2 4.4 2.6h2C13.8 6.2 15.4 5 17.4 5c3.4 0 5.2 3.5 3.8 6.1C19 15.4 12 20 12 20Z"/>
  </symbol>

  <symbol id="i-quote" viewBox="0 0 24 24">
    <path class="ic" d="M10 8.5c-2.3 1-4 3.2-4 5.8 0 1.7 1.2 2.9 2.8 2.9 1.6 0 2.8-1.2 2.8-2.8 0-1.5-1-2.6-2.5-2.7M18 8.5c-2.3 1-4 3.2-4 5.8 0 1.7 1.2 2.9 2.8 2.9 1.6 0 2.8-1.2 2.8-2.8 0-1.5-1-2.6-2.5-2.7"/>
  </symbol>

  <symbol id="i-music" viewBox="0 0 24 24">
    <path class="ic" d="M9 18V5l10-2v13"/>
    <circle class="ic" cx="6" cy="18" r="3"/>
    <circle class="ic" cx="16" cy="16" r="3"/>
  </symbol>

  <symbol id="i-play" viewBox="0 0 24 24">
    <path class="ic" d="m8 5 11 7-11 7V5Z"/>
  </symbol>

  <symbol id="i-pause" viewBox="0 0 24 24">
    <path class="ic" d="M8 5v14M16 5v14"/>
  </symbol>

  <symbol id="i-stop" viewBox="0 0 24 24">
    <rect class="ic" x="6" y="6" width="12" height="12" rx="1"/>
  </symbol>

  <symbol id="i-upload" viewBox="0 0 24 24">
    <path class="ic" d="M12 16V4m0 0L8 8m4-4 4 4M5 14v5h14v-5"/>
  </symbol>

  <symbol id="i-folder" viewBox="0 0 24 24">
    <path class="ic" d="M3 6.5A2.5 2.5 0 0 1 5.5 4H10l2 2h6.5A2.5 2.5 0 0 1 21 8.5v8A2.5 2.5 0 0 1 18.5 19h-13A2.5 2.5 0 0 1 3 16.5v-10Z"/>
    <path class="ic" d="M3.5 9h17"/>
  </symbol>
</svg>
